PathFileType	4	(X/Y/Z)	/Users/visionmauri/1_7_1_f_Sports2D/1_7_1_f_Sports2D_m_person00.trc
DataRate	CameraRate	NumFrames	NumMarkers	Units	OrigDataRate	OrigDataStartFrame	OrigNumFrames
30.0	30.0	9	22	m	30.0	97	389
Frame#	Time	Hip			RHip			RKnee			RAnkle			RBigToe			RSmallToe			RHeel			LHip			LKnee			LAnkle			LBigToe			LSmallToe			LHeel			Neck			Head			Nose			RShoulder			RElbow			RWrist			LShoulder			LElbow			LWrist			
		X1	Y1	Z1	X2	Y2	Z2	X3	Y3	Z3	X4	Y4	Z4	X5	Y5	Z5	X6	Y6	Z6	X7	Y7	Z7	X8	Y8	Z8	X9	Y9	Z9	X10	Y10	Z10	X11	Y11	Z11	X12	Y12	Z12	X13	Y13	Z13	X14	Y14	Z14	X15	Y15	Z15	X16	Y16	Z16	X17	Y17	Z17	X18	Y18	Z18	X19	Y19	Z19	X20	Y20	Z20	X21	Y21	Z21	X22	Y22	Z22
97	3.2416666666666667	2.086682824681169	0.5828968754509796	0.0301	2.149566912587911	0.5065183472469881	0.0301	1.8405385447720088	0.23330500799178686	0.129	1.5526365344696162	0.004562827772989138	0.023	1.495894059328447	0.010220064539293689	0.2179	1.5274312002692116	-0.05916620230176809	0.1804	1.4980672179315442	-0.029600602715386892	-0.0119	2.016294350144229	0.6430288214078758	0.0301	1.7777810074121454	0.42232786779455506	0.129	1.7607337042192277	0.4034177398845469	0.023	1.7286736696954748	0.35439457584441825	0.2179	1.6576414031788185	0.361897149648551	0.1804	1.7622872953780357	0.38799695371421333	-0.0119	2.4244595425484285	0.9108665156075607	0.0008	2.5459989724352465	1.0013400933559762	0.0655	2.4744043102115096	0.943136321849937	0.1076	2.5313463422164695	0.7729111736467553	-0.01275	2.440919258627151	0.5707965051559498	0.0702	2.2940426381425403	0.3495760294284868	0.1076	2.278809978098601	1.0127547263229806	-0.01275	2.0224913711128663	0.8983874221629818	0.0702	1.99898322658998	0.8572028050388826	0.1076
98	3.275085910652921	2.0928623982199968	0.5841031100031382	0.0301	2.1544766612412065	0.507056846676412	0.0301	1.8453305395800828	0.2362151545216398	0.129	1.555196179688333	0.006210918288239494	0.023	1.4937934046504096	0.01276944413030324	0.2179	1.5269626750963536	-0.05748636679791001	0.1804	1.5001423832937735	-0.02524874471230097	-0.0119	2.023201387126403	0.6431982874186575	0.0301	1.787140569158647	0.4256278220971468	0.129	1.775658045498591	0.41035343870611174	0.023	1.7472477793604921	0.36921804913729495	0.2179	1.68758509086104	0.38602622264708125	0.1804	1.7878718932033848	0.4085184300087182	-0.0119	2.43149106999668	0.9092712825159792	0.0008	2.552611295077014	0.9998826409714652	0.0655	2.4831009123900434	0.9424902957943043	0.1076	2.535153474521837	0.7697864208058514	-0.01275	2.443946773094746	0.5661221279201041	0.0702	2.2990650272949247	0.35270212684693963	0.1076	2.2879538783193585	1.0114566980319148	-0.01275	2.0291713436597325	0.8961434164066854	0.0702	2.008123701143253	0.8560972675633395	0.1076
99	3.308505154639175	2.100419304017184	0.5842069875075607	0.0301	2.1588406269270077	0.5053935000814412	0.0301	1.8482993094284406	0.23774364065536507	0.129	1.555990799097452	0.007705124693263453	0.023	1.4972701730965288	0.010804365658010167	0.2179	1.528975644272672	-0.05551757170884496	0.1804	1.5002978790684658	-0.021964068784209027	-0.0119	2.029118596206649	0.6419182433371419	0.0301	1.7948433319853163	0.42523781849014874	0.129	1.7812672559301497	0.408819678863996	0.023	1.7168723149720468	0.3405790786283882	0.2179	1.673721937041372	0.3713293631361253	0.1804	1.8081830725652779	0.42331873769520384	-0.0119	2.437089995141544	0.907551178829997	0.0008	2.5599904687121366	0.9988166001244463	0.0655	2.490203841010467	0.9395906187563766	0.1076	2.5379520467237935	0.7666710554195243	-0.01275	2.4473096543688246	0.5609248552200075	0.0702	2.3053176573684713	0.35408553847329804	0.1076	2.2946490048947568	1.0100902198873998	-0.01275	2.038473649696917	0.8942970423595951	0.0702	2.0209751043206508	0.8603174739867766	0.1076
100	3.3419243986254297	2.107757753070767	0.5831860684670369	0.0301	2.1634923182135286	0.5027131468196251	0.0301	1.8479257330317218	0.23580441620832723	0.129	1.555628133226995	0.008322705385630121	0.023	1.5047565403106946	0.006099196857508844	0.2179	1.53440816342265	-0.05202202510268117	0.1804	1.499388226598901	-0.02018676078898583	-0.0119	2.0337563460210655	0.6387041841539514	0.0301	1.7988479516423763	0.42115756313724934	0.129	1.7809242869350723	0.4048972628890951	0.023	1.6025371001975208	0.23889254022147538	0.2179	1.58472226337024	0.2891394453708756	0.1804	1.8171805181160408	0.42946051089921433	-0.0119	2.4414897292057747	0.9047519265205614	0.0008	2.565744880028309	0.9965744855444759	0.0655	2.4948553338696557	0.934350096860628	0.1076	2.542135173725448	0.7645449806757116	-0.01275	2.452120434823168	0.5563923693629638	0.0702	2.3107011523101444	0.3539172459209614	0.1076	2.299978143652144	1.0076371881878132	-0.01275	2.0483238248395987	0.890618952470871	0.0702	2.035052706677312	0.8648821643360962	0.1076
101	3.375343642611684	2.1137033977748287	0.5822737144824802	0.0301	2.16889546296146	0.5003165144485856	0.0301	1.8445263111717114	0.22998472897866423	0.129	1.555379588254677	0.008276247015736113	0.023	1.510595533440961	0.004632257426964974	0.2179	1.5405383752108874	-0.047808046947597965	0.1804	1.4990898785559184	-0.019410981728650058	-0.0119	2.0380280830546695	0.6359860116165978	0.0301	1.8006267608564657	0.4185832534072526	0.129	1.7801861473525546	0.4014532172565674	0.023	1.4830607715089996	0.13462452458887642	0.2179	1.4628153500454983	0.1773204475952956	0.1804	1.8167807555809015	0.42703372593128097	-0.0119	2.446145070974582	0.9005188234160395	0.0008	2.5689401482288177	0.9929859570628541	0.0655	2.498386803230181	0.9296524631227953	0.1076	2.548321896861038	0.7619168433042075	-0.01275	2.4574788438218302	0.5522010234510994	0.0702	2.3133598338465173	0.35359355549554106	0.1076	2.3064065885663747	1.003731615160831	-0.01275	2.056156544720784	0.885435891929495	0.0702	2.045359987506527	0.8646588849660395	0.1076
102	3.408762886597938	2.1185761144670585	0.5824216418130936	0.0301	2.1739657549278832	0.4995679743165007	0.0301	1.8412716672075333	0.2244895284904484	0.129	1.5563188806302983	0.008919703884030003	0.023	1.513512354294624	0.0078461769950589	0.2179	1.544201134294044	-0.04518422943182508	0.1804	1.5000654616187399	-0.019627451578774286	-0.0119	2.042495599949166	0.636414008177627	0.0301	1.8017590012931364	0.4191720319349538	0.129	1.7816741020710642	0.3988919009765286	0.023	1.4911853384510978	0.14664738617966325	0.2179	1.3874866118243359	0.10938855601084516	0.1804	1.8057339381812536	0.4111762523069876	-0.0119	2.4515288727454143	0.8958505335455729	0.0008	2.5704691701918394	0.9901134590375151	0.0655	2.5019642719768207	0.9270687269191467	0.1076	2.5540917783426895	0.7563626840706846	-0.01275	2.4611013495140344	0.5476399417917318	0.0702	2.3135387575704836	0.3532319163274153	0.1076	2.3143655206423395	0.9993179602656868	-0.01275	2.0639838992469484	0.8822894130541311	0.0702	2.053054422031155	0.8625928584464055	0.1076
103	3.442182130584192	2.122673679081686	0.5828366993044519	0.0301	2.177502937572111	0.5007321711222257	0.0301	1.8409702129755967	0.2233735460733563	0.129	1.558823866690453	0.010628379861500706	0.023	1.5148685709580652	0.012028374184750458	0.2179	1.54412031316299	-0.044150951863730636	0.1804	1.5023198424235302	-0.021076285839343553	-0.0119	2.0471710765521642	0.6392018754716806	0.0301	1.8033629718759603	0.42069472694136273	0.129	1.7837113778074882	0.3962806323492067	0.023	1.6199344146977923	0.26619920158843374	0.2179	1.3798333491673385	0.10451116964106891	0.1804	1.786015362779708	0.3838709046996372	-0.0119	2.4571227782919336	0.8918257536597721	0.0008	2.571369528944202	0.9884301903336576	0.0655	2.506321016195503	0.9253661798429016	0.1076	2.5576237078436073	0.7489780104913798	-0.01275	2.4616443838696536	0.5429865147375641	0.0702	2.312534601474515	0.35268846574733154	0.1076	2.322346035573395	0.9954376620034664	-0.01275	2.073707613623552	0.8814717908134572	0.0702	2.0644532255630827	0.8621357553195029	0.1076
104	3.475601374570447	2.1256013187691387	0.5811315974716968	0.0301	2.1800037787669106	0.5020967192917629	0.0301	1.843424495845309	0.22523283388155682	0.129	1.5617432819077726	0.012070087335524074	0.023	1.5155323075417577	0.013822803051996405	0.2179	1.5412292781059742	-0.04313466378613543	0.1804	1.50620645298783	-0.022198889722880946	-0.0119	2.052235293171015	0.6401718260804804	0.0301	1.8090896984164457	0.4237829513669	0.129	1.786583091957115	0.39339508415896685	0.023	1.7345420115977814	0.3662773479931567	0.2179	1.4055116212225587	0.12612934518270952	0.1804	1.7735207433766398	0.36365058441281223	-0.0119	2.4624599370037266	0.8885890017145992	0.0008	2.57248685859923	0.9860729877852148	0.0655	2.511205876338452	0.9235698548462098	0.1076	2.559642028693932	0.7437924291736062	-0.01275	2.461272342181049	0.539036962755982	0.0702	2.3114998321209974	0.35188261428698814	0.1076	2.3294261372230567	0.9921973377678054	-0.01275	2.083125103766556	0.8802549354761401	0.0702	2.0800557215692583	0.8602219717656142	0.1076
105	3.509020618556701	2.127869226483152	0.5769266254135825	0.0301	2.1826480248776012	0.5021075907476475	0.0301	1.8466521817294197	0.22631029114655482	0.129	1.5638197965678196	0.012434432797682264	0.023	1.5172377505483614	0.012969754157466281	0.2179	1.5384507775395728	-0.04235458011021357	0.1804	1.511530785172598	-0.020933525270280882	-0.0119	2.0577511740914596	0.6373522967638555	0.0301	1.8214236370988117	0.43039938019477325	0.129	1.7910597692738621	0.39049329371351627	0.023	1.7524315406724187	0.37192702497746716	0.2179	1.4350617000777899	0.14363973112304607	0.1804	1.777631024147076	0.36165923062985816	-0.0119	2.466870966406502	0.8857177578413703	0.0008	2.5742314999674796	0.981804561241057	0.0655	2.514406398082575	0.9214573342260881	0.1076	2.561321068021239	0.7421710213098592	-0.01275	2.463166915343581	0.5351965699652492	0.0702	2.3113382878635624	0.3503955439031042	0.1076	2.335469326464707	0.9893396110065314	-0.01275	2.0893696046490784	0.8781679808032822	0.0702	2.0933731091901224	0.8550227645060107	0.1076
